<svg viewBox="0 0 48 38" version="1.1" xmlns="http://www.w3.org/2000/svg" style="fill-rule:evenodd;clip-rule:evenodd;stroke-linejoin:round;stroke-miterlimit:2;"><path d="M7.106,22.558c0.054,0.033 0.137,0.017 0.166,0.092l1.326,0.389c2.514,0.346 2.979,-0.641 2.967,-2.931c-0.013,-2.615 -0.06,-5.312 0.038,-7.919c0.302,-0.701 1.286,-0.57 1.902,-0.6c1.558,2.008 0.998,3.942 0.997,8.041l-0.002,13.919c-0.007,2.376 -0.115,1.837 0.709,3.434l2.597,0.044c0.442,-0.754 0.502,-0.692 1.008,-0.912c-0.219,-4.121 -0.071,-10.605 -0.067,-15.044c0.002,-1.412 0.262,-2.08 1.42,-2.3c2.45,-0.464 1.719,1.714 1.802,5.18c0.052,2.203 -0.124,1.623 1.313,3.043c3.288,-0.448 2.918,0.002 2.918,-7.604c0,-1.313 -0.152,-4.072 0.036,-5.215c0.261,-1.584 1.517,-2.089 2.873,-1.168l0.041,14.783c-0,0.937 0.169,1.349 0.439,2.021c5.765,2.118 4.5,-2.632 4.508,-10.181l0.023,-12.646c1.12,-0.461 -0.391,1.018 0.455,-0.458l1.516,-0.003c1.397,1.897 0.959,2.874 0.959,5.906c-0,5.142 -1.054,8.433 2.945,7.481c0.083,-0.02 0.302,-0.097 0.372,-0.125c0.548,-0.222 0.63,-0.255 0.817,-0.965l0.577,-16.386l5.197,-0.103c0.611,-0.319 0.239,0.173 0.366,-0.659c0.017,-0.117 -0.028,-0.927 -0.031,-1.089c-2.082,-0.932 -12.286,-0.467 -15.19,-0.467l-30.241,-0c-0.734,0.001 -1.239,-0.057 -1.567,0.45c-1.549,2.402 3.492,1.817 3.736,1.82c3.259,0.048 2.586,1.892 2.586,5.003l0.489,15.169Z"/></svg>