<?xml version="1.0" encoding="UTF-8" standalone="no"?><!DOCTYPE svg PUBLIC "-//W3C//DTD SVG 1.1//EN" "http://www.w3.org/Graphics/SVG/1.1/DTD/svg11.dtd"><svg width="100%" height="100%" viewBox="0 0 36 49" version="1.1" xmlns="http://www.w3.org/2000/svg" xmlns:xlink="http://www.w3.org/1999/xlink" xml:space="preserve" xmlns:serif="http://www.serif.com/" style="fill-rule:evenodd;clip-rule:evenodd;stroke-linejoin:round;stroke-miterlimit:2;"><g id="_36531579488"><path d="M14.048,5.072c-0.6,0.325 -0.314,0.296 -1.561,0.096c-0.565,-0.091 -1.263,-0.2 -1.649,-0.255c-2.359,-0.335 -4.999,-1.314 -8.817,-0.923c-1.418,0.146 -1.777,0.531 -1.969,1.784l-0.052,18.708c0.001,1.104 0.03,1.561 0.662,2.101c1.278,1.095 2.584,1.241 4.059,0.619c2.634,-1.112 3.971,-0.353 5.459,-1.013c0.919,-0.407 0.812,-0.589 2.158,-0.623c4.158,-0.105 3.987,-0.742 5.053,-0.738c1.817,0.005 0.808,0.518 3.597,0.693c1.148,0.072 2.885,0.326 3.921,0.623l9.118,1.278c0.509,-0.662 0.89,-0.893 1.112,-2.033l0.083,-18.675c-0.015,-0.589 -0.031,-0.798 -0.152,-1.324c-0.113,-0.491 -0.031,-1.13 -1.13,-1.354c-2.518,-0.512 -8.189,0.86 -9.582,1c-0.61,0.061 -1.274,0.007 -1.867,0.102c-0.604,0.097 -0.676,0.274 -1.471,0.338c-1.043,-1.563 -0.017,-3.56 -0.698,-5.274l-3.651,-0.202c-2.488,0.04 -2.158,-0.213 -2.167,3.615c-0.003,1.165 0.152,0.934 -0.454,1.458l-0.002,-0.001Z"/><path d="M14.358,29.762l-0.009,16.82c0.045,2.039 0.754,1.601 4,1.601c2.495,0 2.331,0.167 2.332,-3.061l-0.002,-15.36c0,-2.566 0.235,-2.145 -4.01,-2.14c-2.205,0.005 -2.324,-0.076 -2.312,2.14l0.001,-0Z"/></g></svg>