<svg viewBox="0 0 41 46" version="1.1" xmlns="http://www.w3.org/2000/svg" style="fill-rule:evenodd;clip-rule:evenodd;stroke-linejoin:round;stroke-miterlimit:2;"><path d="M34.503,9.211c0.266,-0.696 0.208,-1.188 -0.235,-1.63c-1.063,-1.06 -2.064,-0.785 -3.137,-0.054c-0.184,2.763 -0.93,2.405 -1.049,4.07l-0.255,1.606c-0.859,2 -1.033,2.312 -3.121,3.345c-0.745,0.368 -0.626,0.574 -1.486,0.906c-1.017,0.392 -1.364,1.116 -2.573,0.678l-0.214,-2.212c0.014,-2.015 -0.393,-4.508 0.954,-5.802c1.542,-1.483 3.004,-3.22 4.587,-4.506c0.04,-1.469 0.255,-1.132 -0.6,-2.035c-1.309,-1.386 -2.054,-1.017 -3.291,0.278c-0.669,0.701 -0.529,0.784 -1.819,0.749c-0.021,-1.914 0.177,-3.289 -0.504,-4.518c-0.552,-0.042 -1.406,-0.115 -1.943,-0.074c-0.645,0.051 -0.288,-0.047 -0.813,0.187c-0.062,0.027 -0.048,0.672 -0.293,0.217c-0.31,-0.576 -0.618,3.193 -0.62,3.201l-0.16,0.322c-0.717,0.752 -0.847,0.077 -1.324,-0.558c-0.262,-0.35 -0.945,-0.645 -1.337,-0.905c-1.201,0.322 -2.376,1.26 -2.873,2.164c0.641,1.617 0.807,1.606 2.052,2.856c0.896,0.898 1.543,1.552 2.397,2.408c1.067,1.07 1.333,0.991 1.324,3.374c-0.007,1.592 0.021,3.205 -0.022,4.795c-1.442,0.354 -0.746,0.384 -1.794,-0.356c-0.757,-0.535 -4.372,-2.489 -4.698,-2.977l-2.089,-5.554c-0.229,-0.697 -0.341,-1.14 -0.644,-1.785c-1.345,-0.307 -2.969,-0.516 -3.265,1.127c-0.249,1.388 1.163,2.021 0.395,3.445l-1.999,-0.941c-3.408,-2.112 -4.073,1.167 -3.589,1.942c0.363,0.582 1.542,1.023 2.035,1.341c0.464,0.299 1.171,1.124 1.644,1.528c-0.842,0.567 -0.708,0.423 -1.853,0.716c-0.92,0.235 -0.825,0.501 -1.797,0.937l0.091,2.559c0.548,0.344 0.868,0.746 1.685,0.672c2.999,-0.267 6.266,-1.861 8.115,-1.157c0.864,0.329 0.418,0.491 1.321,0.817l3.169,1.446l0.009,1.367c-1.388,0.565 -4.088,2.963 -4.887,3.257c-1.613,0.593 -2.63,-0.775 -4.328,-0.947c-2.202,-0.225 -1.352,-1.112 -4.319,-0.903c-1.354,0.461 -2.196,3.465 -0.004,4.074c0.992,0.275 1.497,0.669 1.747,1.684l-2.308,1.301c-0.024,0.016 -0.637,0.298 -0.658,0.308c-0.026,0.96 -0.102,1.697 0.343,2.402c0.251,0.397 0.312,0.365 0.611,0.67l1.745,0.563c1.015,-0.883 1.871,-1.671 3.285,-1.652c-0.083,1.179 -0.728,1.711 -0.632,3.299c3.897,3.168 3.762,-0.136 4.322,-1.377c0.265,-0.589 0.424,-0.504 0.622,-1.532c0.137,-0.71 0.081,-0.906 0.322,-1.597c0.243,-0.691 0.433,-0.941 0.678,-1.469c0.672,-1.449 -0.227,-1.04 1.425,-1.701c0.601,-0.241 0.763,-0.657 1.473,-0.922c1.652,-0.619 3.83,-3.013 3.858,0.208c0.016,1.852 -0.202,3.822 0.076,5.64c-0.444,0.172 -0.207,-0.001 -0.639,0.317l-1.075,1.087c-1.192,1.199 -4.492,3.575 -3.858,5.449c0.435,0.613 1.414,2.121 2.618,1.472c1.114,-0.601 1.26,-1.509 2.852,-1.474c0.035,2.794 -0.346,2.789 0.959,4.581l2.282,-0.124c1.518,-1.644 0.53,-2.374 0.975,-4.316c1.928,-0.439 1.46,1.403 2.945,1.237l1.499,-0.668c1.242,-0.65 1.108,-1.178 1.106,-2.415l-5.266,-5.185l-0.019,-6.067c0.323,-2.079 2.255,-0.053 3.136,0.249c1.234,0.422 0.613,0.068 1.512,0.706c0.421,0.299 0.228,0.165 0.605,0.354c0.046,0.023 0.123,0.051 0.166,0.071l0.735,0.784c0.033,0.077 0.158,0.462 0.181,0.533c0.991,3.04 0.923,5.017 2.617,7.13c1.65,0.052 2.258,-0.167 3.357,-0.706c0.075,-1.95 -0.499,-2.263 -0.448,-3.822c1.358,0.022 1.394,0.307 2.072,1.002c0.826,0.845 0.651,0.963 2.271,0.921c1.025,-1.278 1.477,-2.012 1.359,-3.604c-0.674,-0.456 -1.475,-1.168 -2.362,-1.407c-1.04,-0.281 -0.001,0.191 -0.954,-0.308c0.705,-2.648 3.867,-0.466 3.566,-4.05c-0.065,-0.781 0.061,-0.329 -0.235,-0.938c-0.172,-0.355 -0.283,-0.434 -0.485,-0.713c-2.96,-0.216 -2.225,0.249 -4.196,0.78c-0.699,0.188 -1.474,0.218 -2.193,0.442c-0.832,0.26 -0.922,0.567 -1.757,0.654c-1.163,0.121 -4.836,-2.577 -6.469,-3.367l0.051,-1.143c0.766,-0.499 0.941,-0.346 1.792,-0.842c2.56,-1.494 4.461,-2.4 7.645,-1.288c0.713,0.248 0.872,0.459 1.798,0.555c2.27,0.236 2.141,0.687 3.749,-0.465c0.095,-3.743 -0.025,-2.745 -3.151,-3.894c0.647,-1.475 2.068,-1.619 3.232,-2.973c0.046,-1.954 -0.332,-2.338 -1.438,-3.137c-1.067,-0.315 -2.602,0.748 -3.538,1.06c-1.592,0.53 -1.137,-0.757 -0.749,-1.773Z"/></svg>