<svg viewBox="0 0 35 46" version="1.1" xmlns="http://www.w3.org/2000/svg" style="fill-rule:evenodd;clip-rule:evenodd;stroke-linejoin:round;stroke-miterlimit:2;"><path d="M17.313,4.273c-0.002,-2.745 0.938,-2.017 0.95,-4.273c-1.521,0.108 -3.643,2.102 -4.613,3.214c-1.452,1.665 -1.824,4.137 -1.104,5.867c0.154,0.371 0.303,0.574 0.442,0.997c0.859,2.622 1.396,2.072 2.2,4.033l0.734,1.658c1.361,2.76 -3.365,6.644 -6.438,2.85c-0.782,-0.965 -0.391,-1.957 -0.481,-2.837l-0.161,-0.595c-0.128,-1.393 -2.667,1.95 -2.766,2.031c-0.322,4.951 -0.256,3.24 1.241,6.884l1.405,1.999c1.711,1.938 1.074,4.161 -0.49,5.029c-1.727,0.959 -3.952,-0.512 -4.298,-1.416l-0.004,-4.345c-1.082,0.024 -1.975,1.122 -2.635,1.97c-0.413,0.53 -1.19,2.301 -1.268,3.084c-0.2,2.01 0.756,5.64 1.684,6.998c0.521,0.763 0.923,2.287 2.759,3.752c1.695,1.353 0.183,0.763 3.512,2.971c0.254,0.169 0.597,0.331 0.759,0.441c0.838,0.574 0.832,0.831 2.486,0.846c-0.2,-1.294 -0.48,-1.244 -0.96,-2.124c-1.354,-2.486 0.528,-7.592 2.714,-7.787c0.575,1.341 -0.216,2.266 0.946,3.607c1.323,1.526 5.235,1.904 5.148,-2.286c-1.395,-1.126 -3.987,-5.414 -3.565,-7.552c0.198,-1.004 1.261,-3.036 1.93,-3.808c0.794,-0.919 1.763,-1.958 3.426,-1.926c-0.72,0.629 -0.881,3.517 0.21,5.31c1.705,2.803 2.868,2.838 4.775,4.829c1.633,1.707 2.612,5.081 2.579,6.82c-0.067,3.525 0.053,3.755 2.344,1.423l2.702,-3.987c0.162,-0.317 0.335,-1.363 0.398,-1.768c0.282,-1.791 1.358,-4.339 0.704,-8.104c-0.381,-2.193 -2.37,-7.59 -4.507,-8.914c-0.937,1.244 -0.022,1.97 -1.008,3.54l-2.355,1.98c0.129,-1.591 0.704,-1.775 0.704,-3.85c0,-4.741 -0.965,-6.273 -3.993,-9.308c-2.676,-2.682 -1.418,-1.25 -2.8,-2.363c-1.73,-1.391 -3.302,-2.432 -3.304,-4.889l-0.002,-0.001Z"/></svg>