<?xml version="1.0" encoding="UTF-8" standalone="no"?><!DOCTYPE svg PUBLIC "-//W3C//DTD SVG 1.1//EN" "http://www.w3.org/Graphics/SVG/1.1/DTD/svg11.dtd"><svg width="100%" height="100%" viewBox="0 0 42 45" version="1.1" xmlns="http://www.w3.org/2000/svg" xmlns:xlink="http://www.w3.org/1999/xlink" xml:space="preserve" xmlns:serif="http://www.serif.com/" style="fill-rule:evenodd;clip-rule:evenodd;stroke-linejoin:round;stroke-miterlimit:2;"><path d="M41.44,21.833c0,-2.576 0.596,-6.786 -0.674,-8.461l-11.394,-11.407c-1.395,-1.406 -1.53,-1.914 -2.586,-1.965c-0.098,1.884 0.141,1.82 0.547,3.265c0.308,1.093 0.353,2.233 0.552,3.307l1.522,6.122c-1.374,0.012 -0.806,0.017 -1.641,-0.475l-6.216,-3.882c-0.157,-0.093 -2.653,-1.147 -2.733,-1.17c0.072,1.025 0.899,2.663 1.364,3.519c0.441,0.812 0.268,0.965 0.765,1.643c0.235,0.321 0.312,0.277 0.497,0.701c0.581,1.326 -1.104,1.093 -2.339,1.088c-3.548,-0.012 -17.422,-0.243 -18.786,0.215c-0.427,1.266 -0.429,14.803 0.024,15.933c2.122,0.713 16.125,-0.087 19.981,0.199c0.313,0.023 0.336,0.033 0.618,0.105l0.29,0.17c1.184,1.147 -1.483,3.325 -1.525,6.562c0.823,-0.062 2.206,-0.767 2.807,-1.261l6.726,-4.584l0.792,0.561c0.182,5.421 -2.772,9.653 -2.237,12.312c0.085,0.424 0.283,0.731 0.954,0.385l1.82,-1.821c2.701,-3.194 5.272,-5.555 7.597,-8.485l3.092,-3.639c0.504,-1.649 0.184,-6.71 0.184,-8.937l-0.001,0Z"/></svg>