<?xml version="1.0" encoding="UTF-8" standalone="no"?><!DOCTYPE svg PUBLIC "-//W3C//DTD SVG 1.1//EN" "http://www.w3.org/Graphics/SVG/1.1/DTD/svg11.dtd"><svg width="100%" height="100%" viewBox="0 0 27 46" version="1.1" xmlns="http://www.w3.org/2000/svg" xmlns:xlink="http://www.w3.org/1999/xlink" xml:space="preserve" xmlns:serif="http://www.serif.com/" style="fill-rule:evenodd;clip-rule:evenodd;stroke-linejoin:round;stroke-miterlimit:2;"><path d="M0.006,23.164c1.306,1.778 1.698,1.313 5.581,1.317c2.044,0.001 4.714,-0.285 6.127,0.477c-0.086,0.768 -0.398,1.66 -0.571,2.626c-0.265,1.489 -0.193,1.452 -0.67,2.675c-0.449,1.153 -0.217,1.627 -0.561,2.805c-0.285,0.975 -0.66,1.394 -0.792,2.578c-0.234,2.102 0.101,1.068 -0.643,2.679l-1.453,5.242c-0.08,1.466 0.321,1.657 0.944,2.395c2.508,0.038 1.593,0.179 3.864,-3.591c0.19,-0.314 0.307,-0.627 0.506,-0.938c0.234,-0.366 0.421,-0.452 0.595,-0.846c0.592,-1.345 -0.475,0.249 1.029,-2.093l1.554,-2.76c0.361,-0.521 0.35,-0.399 0.633,-1.056l0.449,-0.981c0.14,-0.248 0.388,-0.687 0.534,-0.909l0.431,-0.524c0.547,-0.605 1.879,-3.679 2.827,-5.332c0.512,-0.893 0.535,-0.792 0.975,-1.922c0.362,-0.928 0.049,-0.218 0.519,-0.905c0.394,-0.576 0.269,-0.545 0.557,-1.127c0.641,-1.297 0.845,-0.996 2.116,-3.9l1.013,-1.864c1.098,-1.934 0.324,0.222 0.785,-2.343c-1.492,-1.123 -1.497,-1.369 -3.728,-1.326l-7.198,-0.107c-0.534,-1.494 0.354,-1.79 0.676,-3.069c0.236,-0.941 0.046,-0.796 0.44,-1.681c0.801,-1.799 0.503,-1.735 0.914,-3.184c0.165,-0.581 0.511,-0.959 0.641,-1.549c0.087,-0.397 0.142,-1.747 0.11,-2.164c-0.079,-1.036 -0.28,-0.843 -0.49,-1.539c-3.497,-0.394 -9.81,-0.222 -13.604,-0.132c-2.049,2.354 -1.305,0.894 -1.933,4.83c-0.339,2.127 -0.244,4.076 -0.706,5.998c-0.563,2.338 -0.31,3.691 -0.587,6.18c-0.24,2.164 -0.964,3.703 -0.884,6.042l0,-0.002Z"/></svg>