<?xml version="1.0" encoding="UTF-8" standalone="no"?><!DOCTYPE svg PUBLIC "-//W3C//DTD SVG 1.1//EN" "http://www.w3.org/Graphics/SVG/1.1/DTD/svg11.dtd"><svg width="100%" height="100%" viewBox="0 0 45 43" version="1.1" xmlns="http://www.w3.org/2000/svg" xmlns:xlink="http://www.w3.org/1999/xlink" xml:space="preserve" xmlns:serif="http://www.serif.com/" style="fill-rule:evenodd;clip-rule:evenodd;stroke-linejoin:round;stroke-miterlimit:2;"><path d="M28.412,16.774c0.06,-0.024 -0.553,-0.318 1.074,-0.392c2.606,-0.12 4.492,1.721 5.185,3.527c0.343,0.897 0.379,2.96 -0.638,4.179c-1.817,2.179 -4.336,3.542 -6.904,1.739c-2.076,-1.458 -3.035,-3.506 -2.303,-5.913l0.547,-1.125c1.304,-1.863 2.708,-1.883 3.04,-2.015l-0.001,0Zm-15.491,-0.145c1.532,-0.617 3.104,-0.198 4.124,0.514c2.127,1.485 2.62,2.994 2.39,5.309c-0.192,1.924 -1.904,2.831 -2.809,3.435c-5.197,3.472 -11.545,-6.104 -3.705,-9.258Zm23.903,15.092c1.611,-0.92 4.289,-4.309 5.18,-5.93c1.407,-2.566 0.482,-1.449 1.143,-3.192c1.92,-5.073 0.244,-6.959 -0.06,-8.63c-0.185,-1.02 0.151,-0.822 -0.338,-1.615c-0.483,-0.783 -0.367,-0.128 -0.809,-1.328l-1.487,-2.765l-3.035,-3c-0.901,-0.673 -1.438,-1.005 -2.507,-1.677c-0.775,-0.487 -0.833,-0.259 -1.578,-0.61c-0.819,-0.387 -0.254,-0.429 -1.332,-0.828c-0.78,-0.289 -0.73,-0.194 -1.499,-0.636c-0.484,-0.278 -0.829,-0.423 -1.469,-0.492c-3.55,-0.383 -0.705,0.098 -3.411,-0.662c-3.131,-0.879 -7.929,0.056 -11.096,0.811c-1.344,0.319 -0.666,0.462 -1.434,0.723c-0.653,0.221 -0.951,-0.005 -1.641,0.328c-0.786,0.378 -0.217,0.433 -1.339,0.769c-1.561,0.469 -3.393,1.88 -4.471,3.026c-2.056,2.185 -1.206,0.952 -3.233,3.722c-0.493,0.673 -1.211,1.806 -1.369,2.644c-0.477,2.52 -1.174,0.189 -1.016,7.435c0.025,1.138 1.228,4.41 1.424,4.758c0.213,0.377 0.519,0.69 0.734,1.164c2.579,5.696 7.568,7.229 8.053,8.469c0.092,1.357 0.128,2.75 -0.24,4.021c-0.609,2.097 -1.816,4.152 1.746,4.158c0.726,0.001 4.066,0.169 4.616,-0.21l0.675,-3.897c0.722,-1.196 2.106,-1.178 2.539,-0.168c0.041,1.307 -0.123,2.906 0.234,3.881c0.996,0.366 3.537,0.375 4.517,-0.01c0.377,-0.358 0.164,-2.55 0.207,-3.221c0.076,-1.174 0.501,-1.508 1.622,-1.606c1.894,0.555 0.746,4.101 1.399,4.772c0.916,0.434 2.352,0.269 3.641,0.271c2.064,0.001 3.74,0.448 3.62,-1.488c-0.11,-1.747 -1.252,-2.09 -1.077,-6.744l3.094,-2.242l-0.003,-0.001Z"/></svg>