<svg viewBox="0 0 47 47" version="1.1" xmlns="http://www.w3.org/2000/svg" style="fill-rule:evenodd;clip-rule:evenodd;stroke-linejoin:round;stroke-miterlimit:2;"><path d="M23.997,24.774c-0.003,-1.293 6.218,-6.671 6.219,-6.671c1.56,-0.452 7.903,2.754 8.587,6.713c0.287,1.659 0.124,6.002 -0.192,7.397l-0.498,5.288c-0.105,1.1 0.029,0.914 -0.698,1.409c-0.787,-0.487 -2.625,-2.501 -3.39,-3.306c-1.058,-1.114 -2.553,-2.3 -3.363,-3.591c-1.044,-1.666 -6.665,-6.381 -6.666,-7.239l0.001,0Zm-15.153,-16.091c0.856,-0.37 1.215,-0.432 2.415,-0.46c0.453,-0.009 0.994,0.008 1.422,-0.044c0.564,-0.07 -0.143,0.032 0.559,-0.112c0.08,-0.017 0.322,-0.068 0.403,-0.086c3.19,-0.714 4.648,-1.343 7.746,-0.024l2.231,1.089c0.7,0.415 0.723,0.203 1.371,0.791c1.091,0.988 3.48,4.693 3.057,6.057c-0.039,0.125 -5.719,6.213 -6.473,6.221c-0.897,0.009 -8.864,-8.817 -9.866,-9.795c-0.618,-0.603 -1.044,-1.074 -1.669,-1.692c-1.211,-1.195 -0.516,-0.471 -1.196,-1.946l-0,0.001Zm-5.003,-3.634c-1.629,-2.062 -0.234,-1.549 0.093,-3.184c0.319,-1.596 -0.99,-1.813 -2.445,-1.722c-1.041,1.549 -1.642,1.543 -1.455,4.246c0.159,2.301 5.719,7.077 7.827,9.14l10.099,10.121c0.606,0.613 0.503,0.713 0.954,1.584c-1.132,0.827 -2.865,2.806 -3.992,3.926c-2.298,2.285 -1.482,2.117 -5.829,2.101c-3.039,-0.011 -3.241,0.73 -5.218,2.692c-1.27,1.261 -2.554,2.602 -3.797,3.78c-0.152,1.993 -0.211,2.335 1.807,2.333c0.724,-0.001 1.449,-0.004 2.172,-0.009l1.85,0.401c0.303,0.92 0.135,1.909 0.146,3.286c0.026,3.119 2.018,2.937 3.69,1.358l5.071,-5.252c0.974,-1.363 0.51,-4.401 0.566,-6.437l4.514,-4.56c1.932,-1.986 1.709,-1.602 4.581,1.298l8.272,8.29c1.972,2.01 3.644,3.642 5.632,5.648c0.825,0.833 3.028,1.903 3.4,1.98c2.53,0.517 3.041,-0.434 3.493,-0.723c1.036,-0.664 0.767,0.547 0.859,-2.417c-2.877,-1.938 -1.554,0.049 -4.438,-0.135c-0.266,-0.362 -0.349,-0.339 -0.545,-0.839c-0.484,-1.234 -0.002,-3.865 0.058,-5.669c0.035,-1.054 0.133,-1.14 0.363,-2.063c0.378,-1.513 0.335,-3.006 0.553,-4.476c0.56,-3.782 0.347,-4.242 -1.214,-7.967c-0.398,-0.947 -1.393,-2.121 -2.039,-2.779c-0.82,-0.836 -1.61,-1.532 -2.588,-2.203c-0.597,-0.41 -0.981,-0.306 -1.67,-0.748c-0.522,-0.334 -0.938,-0.659 -1.262,-1.117c0.434,-0.642 8.283,-8.829 9.339,-9.112c0.775,1.701 -0.388,2.904 1.929,3.369c1.803,-0.771 1.447,-1.502 1.444,-3.857c-0.005,-6.319 0.995,-5.26 -5.524,-5.275c-1.938,-0.004 -3.42,-0.382 -3.613,1.675c0.985,1.796 1.346,1.13 3.381,1.683c-0.321,1.183 -8.688,9.065 -9.129,9.346c-0.7,-0.209 -0.955,-0.424 -1.274,-1.111c-0.527,-1.135 -0.171,-0.611 -0.873,-1.523c-1.235,-1.605 -0.144,-0.54 -2.078,-2.489c-1.629,-1.642 -2.511,-2.224 -4.391,-2.586c-0.813,-0.157 -0.835,-0.324 -1.504,-0.634c-1.69,-0.781 -6.9,-0.154 -8.845,-0.014c-1.361,0.098 -0.735,0.322 -1.909,0.444c-2.417,0.252 -3.953,0.418 -6.461,0.201l-0,-0.001Z"/></svg>