<?xml version="1.0" encoding="UTF-8" standalone="no"?><!DOCTYPE svg PUBLIC "-//W3C//DTD SVG 1.1//EN" "http://www.w3.org/Graphics/SVG/1.1/DTD/svg11.dtd"><svg width="100%" height="100%" viewBox="0 0 45 50" version="1.1" xmlns="http://www.w3.org/2000/svg" xmlns:xlink="http://www.w3.org/1999/xlink" xml:space="preserve" xmlns:serif="http://www.serif.com/" style="fill-rule:evenodd;clip-rule:evenodd;stroke-linejoin:round;stroke-miterlimit:2;"><g id="_36531579840"><path d="M28.449,44.548c-0.499,0.628 -0.28,0.489 -1.466,0.499c-3.495,0.028 -0.84,-1.688 -2.755,-2.111c-1.126,-0.248 -0.674,0.994 -1.032,1.882c-0.84,0.31 -0.965,0.307 -1.804,0c-0.227,-0.562 -0.046,-2.574 -1.361,-1.747c-1.07,0.673 0.336,1.739 -1.691,1.956c-4.258,0.455 -1.296,-2.314 -2.358,-4.16c-0.203,-0.352 -2.556,-1.934 -3.579,-3.372c-0.435,-0.611 -0.278,-0.996 -0.669,-1.745c-0.645,-1.234 -0.843,-2.335 -0.609,-4.187c0.329,-2.612 2.519,-4.809 4.624,-5.991l1.423,-0.964c2.406,-1.08 6.341,-1.552 8.875,-0.323c0.859,0.416 1.331,0.318 1.856,0.569l2.156,1.529c0.034,0.024 0.096,0.059 0.13,0.082c1.062,0.739 0.843,0.566 1.5,1.678c0.834,1.413 3.025,3.614 1.376,7.093c-0.83,1.751 -0.155,2.102 -2.907,4.307c-1.902,1.525 -1.957,1.053 -1.634,4.209l-0.075,0.796Zm-13.218,-43.489c-0.116,2.49 0.297,2.258 1.882,3.148l0.038,5.75c0,2.02 -0.15,1.428 -0.751,2.627c-0.242,0.484 -0.191,0.739 -0.429,1.262l-8.996,18.422c-0.389,1.592 -0.274,-0.273 -1.026,2.35l-2.241,4.668c-0.248,0.423 -0.494,0.445 -0.7,0.971c-0.217,0.557 -0.128,0.885 -0.372,1.309c-0.478,0.83 -0.328,-0.006 -0.705,1.255c-0.278,0.933 0.034,0.296 -0.549,1.057c-0.506,0.66 -0.228,0.306 -0.557,1.173c-0.6,1.583 -0.917,0.357 -0.801,2.917c1.211,0.885 0.8,0.953 2.954,0.953c4.476,0 38.927,0.302 40.339,-0.238c0.723,-0.275 0.601,-0.516 1.241,-0.972c-0.274,-1.755 -2.21,-5.165 -3.032,-7.153c-0.292,-0.704 -0.333,-0.487 -0.67,-1.02c-0.404,-0.637 -0.293,-0.948 -0.851,-1.792c-0.372,-0.564 -1.945,-5.052 -3.004,-6.368c-0.452,-0.561 -0.301,-0.375 -0.54,-1.073c-0.4,-1.169 -0.266,-0.452 -0.717,-1.236c-0.283,-0.492 -0.194,-0.759 -0.448,-1.25c-0.21,-0.406 -0.478,-0.493 -0.661,-0.972c-0.275,-0.723 0.009,-0.598 -0.421,-1.321c-0.566,-0.95 -1.411,-2.206 -1.675,-3.319l-4.496,-9.449c-1.138,-2.014 -0.746,-2.407 -0.74,-6.159c0.003,-1.999 -0.343,-2.253 1.923,-3.972l0.002,-1.639c-1.193,-1.119 -0.742,-0.988 -3.208,-0.979l-9.911,0.048l-0.874,1.003l-0.004,-0.001Z"/><path d="M16.146,33.237l-0.053,2.242c1.561,1.484 0.684,1.16 3.734,1.166c0.405,-0.676 1.925,-2.177 0.207,-3.907c-1.295,-1.302 -2.593,-0.864 -3.888,0.499Z"/><path d="M23.758,34.197l0.923,2.273c2.811,0.24 1.988,0.585 3.79,-0.995c0.023,-0.817 0.09,-1.687 -0.214,-2.281c-0.383,-0.751 -0.132,-0.253 -0.614,-0.64c-0.915,-0.734 -1.643,-1.013 -2.825,-0.051c-0.542,0.442 -0.778,1.114 -1.06,1.694Z"/></g></svg>