<?xml version="1.0" encoding="UTF-8" standalone="no"?><!DOCTYPE svg PUBLIC "-//W3C//DTD SVG 1.1//EN" "http://www.w3.org/Graphics/SVG/1.1/DTD/svg11.dtd"><svg width="100%" height="100%" viewBox="0 0 47 42" version="1.1" xmlns="http://www.w3.org/2000/svg" xmlns:xlink="http://www.w3.org/1999/xlink" xml:space="preserve" xmlns:serif="http://www.serif.com/" style="fill-rule:evenodd;clip-rule:evenodd;stroke-linejoin:round;stroke-miterlimit:2;"><g id="_36531584224"><path d="M30.753,41.864c1.315,-0.002 1.358,0.045 2.28,-0.446c0.864,-0.459 1.247,-0.279 1.961,-0.935c1.31,-1.202 0.395,-2.418 2.974,-2.691c2.434,-0.258 4.671,-2.598 4.871,-4.412l0.004,-2.181c0.848,-0.744 2.128,-1.282 2.946,-2.494l0.179,-0.311c0.034,-0.064 0.113,-0.271 0.146,-0.336c0.395,-0.763 -0.012,-0.464 0.848,-0.795c-0.114,-1.061 0.136,-2.494 -0.188,-3.378l-1.118,-2.544c-0.419,-0.628 -1.407,-1.187 -1.699,-1.866c-0.354,-0.823 -0.111,-2.432 -0.113,-3.396c-0.001,-0.557 0.033,-1.917 -0.097,-2.39c-0.032,-0.118 -0.783,-1.367 -0.991,-1.677c-0.582,-0.867 -2.222,-1.452 -2.544,-2.688c-0.164,-0.632 -0.287,-1.414 -0.421,-1.982c-0.271,-1.148 -0.323,-0.942 -0.989,-1.692l-1.43,-1.247c-2.003,-1.039 -0.902,0.591 -3.102,-1.922c-1.492,-1.705 -2.835,-2.634 -5.453,-2.46c-1.1,0.073 -2.735,1.211 -3.172,2.068c-0.919,1.806 -1.142,1.671 -1.135,4.149c0.007,2.343 -0.164,30.229 0.096,31.116c0.047,0.16 1.327,2.756 2.037,3.24c0.724,0.494 2.794,1.273 4.108,1.27l0.002,0Z"/><path d="M3.261,19.199c-1.447,1.593 -3.243,3.118 -3.261,6.238c-0.017,2.775 1.975,4.39 4.058,5.57l0.067,3.312c0.367,1.112 2.268,3.221 4.755,3.66l0.41,0.08c0.068,0.013 0.128,0.025 0.193,0.039c2.83,0.629 0.235,1.656 3.832,2.924c1.163,0.41 3.586,1.561 5.643,0.475c2.164,-1.142 1.911,-1.279 3.045,-2.976c0.541,-0.809 0.424,-1.553 0.424,-2.762l0.004,-30c0.006,-4.167 -3.875,-6.278 -6.345,-5.363c-0.853,0.317 -0.274,0.215 -0.898,0.556c-1.779,0.972 -0.993,0.347 -3.057,2.509c-1.17,1.225 -4.042,0.759 -4.835,3.633c-0.664,2.406 0.123,2.131 -1.66,3.789c-0.558,0.518 -1.81,1.334 -2.376,3.209c-0.518,1.718 -0.014,3.495 -0,5.108l0.001,-0.001Z"/></g></svg>