<svg viewBox="0 0 48 48" version="1.1" xmlns="http://www.w3.org/2000/svg" style="fill-rule:evenodd;clip-rule:evenodd;stroke-linejoin:round;stroke-miterlimit:2;"><g id="_36531571904"><path d="M11.394,25.695c0.139,0.832 0.524,0.859 0.85,2.539c0.321,1.657 1.24,2.905 2.314,4.004c2.711,2.773 1.441,1.479 3.489,2.768c0.523,0.329 0.098,0.153 0.609,0.388c5.774,2.648 8.277,0.4 9.424,0.259c1.873,-0.232 1.098,-0.225 2.343,-0.861c1.388,-0.708 3.349,-2.468 4.101,-3.861c0.66,-1.224 1.991,-4.372 2.046,-5.707c0.202,-4.77 -0.363,-3.349 -0.859,-5.664c-0.374,-1.747 -0.281,-0.963 -1.002,-2.161l-0.45,-0.763c-0.033,-0.043 -0.08,-0.097 -0.115,-0.14c-0.033,-0.04 -0.088,-0.088 -0.123,-0.127l-1.504,-1.587c-1.63,-1.958 -4.938,-3.133 -7.375,-3.509c-3.156,-0.487 -3.917,0.395 -5.373,0.786c-0.802,0.216 -2.64,1.072 -3.244,1.628l-1.276,1.122c-1.33,1.341 -1.316,1.189 -2.317,2.979c-0.981,1.751 -1.907,5.683 -1.538,7.906l0,0.001Z"/><path d="M38.552,16.248c1.713,-2.758 2.213,-5.108 2.702,-5.71c0.418,-0.516 0.382,-0.29 0.633,-1c1.55,-4.385 -2.53,-1.85 -2.565,-1.836c-0.447,0.192 -0.85,0.211 -1.301,0.372l-3.333,1.703c-0.644,0.278 -3.133,0.429 -0.764,3.1c0.391,0.44 0.894,0.881 1.33,1.307c2.123,2.069 1.596,2.131 3.297,2.064l0.001,-0Z"/><path d="M38.385,31.728c-1.415,0.102 -2.464,1.599 -3.287,2.439c-0.96,0.981 -2.312,1.691 -2.083,3.377l4.135,1.859c0.528,0.307 0.584,0.271 1.183,0.53c0.446,0.192 0.513,0.301 0.899,0.527c0.748,0.439 0.178,0.196 1.06,0.396c1.39,0.314 1.131,0.263 2.163,-0.521c-0.419,-0.951 -0.445,-1.575 -0.927,-2.376c-0.826,-1.377 -1.308,-2.881 -1.881,-4.427c-0.282,-0.761 -0.898,-1.504 -1.262,-1.804l-0,-0Z"/><path d="M10.544,31.89c-1.496,0.194 -1.062,0.608 -1.687,1.727c-0.774,1.386 -3.113,5.46 -2.692,6.719c0.303,0.908 1.842,0.536 2.594,0.142l3.228,-1.573c0.418,-0.187 0.629,-0.158 1.104,-0.337c0.711,-0.271 0.539,-0.349 1.025,-0.656c0.337,-0.213 0.676,-0.311 0.983,-0.457c0.066,-1.52 0.183,-1.177 -0.645,-1.989c-1.18,-1.156 -2.844,-3.216 -3.909,-3.575l-0.001,-0.001Z"/><path d="M22.512,46.134c2.455,5.082 3.621,-3.094 4.417,-4.763c0.561,-1.175 0.668,-0.62 0.577,-2.414c-1.434,-0.846 -5.613,-0.789 -7.059,-0.007c-0.078,1.441 1.12,4.714 1.682,6.166c0.158,0.41 0.198,0.633 0.383,1.018Z"/><path d="M0.001,23.775c0.419,0.728 0.957,1.344 1.94,1.698l5.008,1.7c0.904,0.526 1.262,0.647 2.309,-0.105c0.123,-1.868 0.364,-5.278 -0.406,-6.629c-0.656,-0.022 -0.925,-0.084 -1.55,0.107l-1.662,0.747c-0.168,0.052 -0.378,0.083 -0.564,0.123c-2.217,0.48 -1.219,0.506 -2.303,0.825c-0.919,0.271 -1.585,-0.159 -2.773,1.534l0.001,0Z"/><path d="M14.916,10.511l-5.35,-2.377c-2.547,-0.635 -1.579,-1.393 -3.252,-0.829c-0.445,1.263 0.033,1.584 0.492,2.419l2.903,6.225c0.364,-0.005 0.953,0.11 1.221,-0.148l0.389,-0.388c0.036,-0.036 0.082,-0.087 0.116,-0.122l2.983,-2.999c0.724,-0.771 0.565,-0.393 0.498,-1.781Z"/><path d="M21.448,6.495c-1.129,1.221 -1.55,2.297 0.123,2.505c0.138,0.018 0.567,0.012 0.728,0.013l4.931,-0.244c-0.05,-1.589 -0.442,-1.59 -0.954,-3.773c-0.249,-1.06 -0.105,-0.407 -0.398,-1.084c-0.781,-1.801 0.203,-1.918 -1.086,-3.262c-0.473,-0.493 -0.258,-0.33 -0.808,-0.65c-1.313,0.653 -1.308,1.16 -1.683,2.909c-0.262,1.217 -0.418,0.627 -0.684,1.465c-0.161,0.505 -0.154,1.561 -0.169,2.12l-0,0.001Z"/><path d="M38.779,24.975c0.005,3.551 0.706,2.221 2.807,1.569l3.998,-1.266c1.321,-0.323 1.171,-0.621 2.228,-1.178c-0.884,-2.11 -2.448,-1.294 -4.167,-2.248c-1.181,-0.657 -1.506,-0.29 -2.519,-0.647c-0.513,-0.181 -0.319,-0.392 -0.858,-0.575c-1.186,-0.401 -1.274,0.176 -1.275,0.178c-0.417,0.986 -0.215,2.869 -0.214,4.167Z"/></g></svg>