<svg viewBox="0 0 45 44" version="1.1" xmlns="http://www.w3.org/2000/svg" style="fill-rule:evenodd;clip-rule:evenodd;stroke-linejoin:round;stroke-miterlimit:2;"><g id="_36531580480"><path d="M13.8,25.025c1.223,1.784 3.453,4.018 5.253,5.248c2.334,-1.091 1.511,-0.819 3.771,-2.918l17.678,-16.882c1.421,-1.401 2.157,-1.802 2.656,-4.313c0.243,-1.227 0.48,-1.297 0.703,-2.666c0.096,-0.588 0.503,-2.722 0.012,-3.208c-0.674,-0.667 -2.183,0.012 -2.752,0.231c-0.905,0.35 -1.875,0.232 -2.759,0.622c-4.513,1.995 -3.723,0.8 -8.237,5.677l-13.357,14.24c-2.006,2.426 -1.62,1.407 -2.968,3.968l-0,0.001Z"/><path d="M16.813,39.728l1.619,0.036c0.356,-0.51 0.567,-0.681 1.032,-1.129c1.566,-1.51 0.874,-1.469 -0.203,-3.459l-4.235,-5.646c-1.783,-2.001 -6.461,-5.142 -7.186,-5.985l-1.339,-0.022c-2.679,3.388 -4.719,0.492 4.852,10.161l5.461,6.044l-0.001,-0Z"/><path d="M3.395,34.069c1,2.683 3.542,3.78 5.025,5.906c1.345,0.038 2.364,-0.155 3.055,-1.423c0.861,-1.577 -1.535,-3.154 -3.202,-5.137c-0.852,-1.015 -0.936,-1.689 -2.691,-1.672l-2.187,2.326Z"/><path d="M2.082,38.031c-1.669,0.71 -2.586,2.308 -1.793,4.098c1.07,2.418 4.16,2.455 5.724,0.103c1.131,-1.701 -1.034,-5.434 -3.931,-4.201l-0,-0Z"/></g></svg>