<svg viewBox="0 0 25 46" version="1.1" xmlns="http://www.w3.org/2000/svg" style="fill-rule:evenodd;clip-rule:evenodd;stroke-linejoin:round;stroke-miterlimit:2;"><g id="_36531573600"><path d="M9.262,3.784c1.731,1.157 5.741,5.624 6.885,7.997c0.463,0.959 1.677,2.282 2.215,4.473c0.919,3.748 1.193,1.588 1.061,7.819c-0.05,2.407 -0.801,5.103 -1.767,7.075c-0.273,0.559 -0.252,1.069 -0.502,1.655c-0.247,0.582 -0.472,0.712 -0.781,1.385l-2.535,3.95c-1.11,1.454 -3.346,2.854 -3.557,3.16c-0.752,1.087 -0.615,2.622 -0.056,3.285c0.764,0.908 1.896,1.01 3.241,0.632c1.479,-0.415 1.281,-0.584 2.2,-1.163c2.749,-1.729 4.907,-4.896 6.476,-7.684c0.89,-1.582 1.625,-5.27 1.991,-6.906c0.512,-2.283 0.422,-9.116 -0.211,-11.328c-0.136,-0.474 -0.211,-0.387 -0.321,-0.845c-0.244,-1.016 -0.601,-3.555 -1.3,-5.213c-1.01,-2.392 -1.791,-3.497 -3.07,-5.544c-0.91,-1.459 -1.8,-2.372 -3.076,-3.653c-0.413,-0.415 -0.665,-0.673 -1.091,-1.07l-2.843,-1.742c-0.768,-0.15 -1.368,-0.048 -1.84,0.297c-1.08,0.787 -1.428,1.509 -1.12,3.419l0.001,0.001Z"/><path d="M5.232,10.627l3.354,4.621c1.44,1.797 0.072,0.83 1.075,2.286c0.56,0.813 0.498,0.483 0.576,1.725c0.121,1.933 1.146,5.35 -0.164,8.188c-0.324,0.703 -0.51,0.608 -0.752,1.44c-0.56,1.927 -2.53,3.826 -3.733,5.572c-0.534,0.775 -0.414,1.03 -0.364,2.168c0.997,0.474 0.724,0.095 1.392,0.965l2.578,0.005c0.51,-0.751 1.665,-1.74 2.372,-2.449c1.496,-1.5 2.957,-4.271 3.424,-6.253c0.607,-2.581 0.794,-9.284 -0.239,-11.383c-0.452,-0.92 -0.418,-1.668 -0.855,-2.503c-0.336,-0.641 -0.317,-0.416 -0.602,-1.057c-0.221,-0.5 -0.307,-0.823 -0.643,-1.313c-0.41,-0.597 -0.244,-0.36 -0.625,-1.031c-0.43,-0.756 -1.845,-2.017 -2.584,-2.507c-1.135,-0.752 -1.527,-1.427 -3.47,0.284c-0.581,0.512 -0.464,0.55 -0.74,1.242Z"/><path d="M0.469,17.827c0.265,2.778 2.413,2.08 1.494,6.298c-0.559,2.562 -3.575,1.885 -0.818,5.509c0.878,0.021 1.562,0.089 2.216,-0.281c0.197,-0.112 1.278,-1.022 1.441,-1.225c1.083,-1.353 1.283,-2.121 1.29,-3.82l0.001,-0.24c0.003,-0.798 -0.009,-1.603 -0.027,-2.401c-0.062,-2.682 -0.249,-2.464 -1.869,-5.139c-2.524,-0.505 -2.787,-0.147 -3.729,1.3l0.001,-0.001Z"/></g></svg>